<svg width="40" height="48" viewBox="0 0 40 48" fill="none" xmlns="http://www.w3.org/2000/svg">
<path d="M28.657 0.161617C26.4312 0.418649 23.2812 2.38193 21.7172 4.48193C20.8148 5.68505 20.2843 6.83349 19.825 8.56162L19.5953 9.42568L19.6062 10.3444C19.6172 10.8476 19.6445 11.3179 19.6718 11.3944C19.7429 11.5749 19.8797 11.6022 20.8422 11.6077C21.6406 11.6132 21.6898 11.6077 22.3734 11.4054C24.2 10.8749 25.5398 10.0765 26.4914 8.94443C26.7211 8.66552 27.0656 8.29365 27.2461 8.10771C27.8476 7.51709 28.6187 6.20459 29.0453 5.06709C29.4718 3.92412 29.6632 2.86318 29.7179 1.3538L29.7507 0.385836L29.6086 0.243649C29.45 0.0850544 29.3625 0.079586 28.657 0.161617Z" fill="#717171"/>
<path d="M28.1484 11.4655C27.0656 11.5202 24.1508 12.3296 22.0562 13.1499C20.7875 13.6476 20.7875 13.6476 20.5359 13.6913C20.0984 13.7624 19.0265 13.4507 17.1836 12.7069C16.2047 12.3186 15.1984 12.0233 13.7109 11.6843C13.0875 11.5476 12.0539 11.5311 11.6054 11.6569C11.425 11.7061 10.8562 11.821 10.3422 11.9085C9.23747 12.1054 8.61403 12.2968 7.78278 12.7069C5.27263 13.9319 3.56091 15.6929 2.20466 18.4491C1.6031 19.6632 1.16013 20.8499 0.832002 22.1132C0.345283 23.989 0.334346 27.5874 0.810127 29.7694C0.864814 30.0374 0.914033 30.3546 0.914033 30.4804C0.914033 30.7429 0.963252 30.9397 1.42263 32.7499C1.84919 34.4233 1.80544 34.2866 2.62028 36.3319C3.76325 39.203 4.12419 39.8374 6.45935 43.0585C7.41638 44.3765 7.9031 44.978 8.60856 45.6944C9.34685 46.4491 9.94294 46.8866 10.7851 47.3022C11.7367 47.7671 12.1523 47.871 13.0273 47.8655C14.1484 47.8655 15.0508 47.6358 16.7679 46.914C17.8508 46.4601 17.9218 46.4382 19.8906 46.0335C20.4812 45.9077 21.0281 45.9186 21.8593 46.0554C22.1437 46.0991 22.5703 46.1647 22.8 46.1976C23.2648 46.2632 23.7351 46.4163 24.9492 46.903C26.4148 47.4936 27.4484 47.7561 28.5312 47.8218C30.1062 47.9202 31.6265 47.2202 33.2508 45.6616C34.9078 44.0593 36.4554 41.8663 38.0195 38.9077C38.4406 38.1093 39.1133 36.4741 39.2281 35.9819C39.2773 35.7851 39.3593 35.539 39.4195 35.4405C39.4742 35.3421 39.5234 35.2054 39.5234 35.1452C39.5234 34.9483 39.1242 34.6366 38.4187 34.2811C37.0898 33.5976 35.7828 32.4272 34.9023 31.1093C34.2734 30.1632 33.639 28.7468 33.4804 27.9101C33.2125 26.5319 33.1359 25.0226 33.289 23.9726C33.3273 23.6991 33.464 23.1249 33.5953 22.6874C34.1586 20.7897 34.5468 20.0296 35.4273 19.089C35.6953 18.8101 35.914 18.553 35.914 18.5311C35.914 18.4382 37.2539 17.3171 37.582 17.1366C37.7625 17.0327 37.9922 16.8741 38.0906 16.7757C38.3914 16.4804 38.3476 16.3655 37.5929 15.4796C36.5812 14.2929 35.307 13.3194 33.8086 12.5921C32.8734 12.1382 32.2281 11.914 31.3258 11.728C30.4015 11.5311 29.0234 11.4163 28.1484 11.4655Z" fill="#717171"/>
</svg>
